<svg width="80" height="432" viewBox="0 0 80 432" fill="none" xmlns="http://www.w3.org/2000/svg">
<path d="M0 12C0 5.37258 5.37258 0 12 0H68C74.6274 0 80 5.37258 80 12V68C80 74.6274 74.6274 80 68 80H12C5.37258 80 0 74.6274 0 68V12Z" fill="#161734"/>
<g clip-path="url(#clip0_0_96)">
<path d="M45.1561 34.2134C44.0809 33.1382 43.0094 32.4666 42.7627 32.7132L29.7678 45.7082C29.5211 45.9549 30.1928 47.0264 31.268 48.1016C32.3432 49.1768 33.4147 49.8484 33.6614 49.6018L46.6563 36.6068C46.9029 36.3601 46.2313 35.2886 45.1561 34.2134Z" fill="url(#paint0_linear_0_96)"/>
<path d="M45.4311 34.4976C44.419 33.5488 43.4715 32.9876 43.2378 33.2212L29.9629 46.4961C30.2275 46.9448 30.6891 47.5225 31.2681 48.1015C32.3433 49.1767 33.4148 49.8483 33.6615 49.6017L46.6564 36.6068C46.8813 36.3819 46.3427 35.4714 45.4311 34.4976Z" fill="url(#paint1_linear_0_96)"/>
<path d="M46.6565 36.6068C46.4098 36.8535 45.3383 36.1818 44.2631 35.1066C43.1879 34.0314 42.5163 32.9599 42.7629 32.7132C43.0096 32.4666 44.0811 33.1382 45.1563 34.2134C46.2315 35.2886 46.9032 36.3602 46.6565 36.6068Z" fill="url(#paint2_linear_0_96)"/>
<path d="M46.0628 36.0131C45.8914 36.1846 45.1466 35.7177 44.3994 34.9705C43.6521 34.2232 43.1853 33.4785 43.3567 33.3071C43.5281 33.1356 44.2729 33.6024 45.0202 34.3497C45.7674 35.097 46.2342 35.8417 46.0628 36.0131Z" fill="url(#paint3_linear_0_96)"/>
<path d="M46.3246 35.6018L35.1518 46.7746C34.0907 47.8357 32.3701 47.8491 31.3003 46.7969C31.2895 46.7863 31.2787 46.7756 31.268 46.7649C30.7786 46.2754 30.3732 45.787 30.0996 45.3766L29.7678 45.7083C29.5211 45.9549 30.1928 47.0265 31.268 48.1017C32.3432 49.1769 33.4147 49.8485 33.6614 49.6019L46.6563 36.6069C46.7907 36.4725 46.6521 36.0931 46.3246 35.6018Z" fill="url(#paint4_linear_0_96)"/>
<path d="M39.8976 43.3659L38.7525 44.511C38.5057 44.7578 37.4338 44.086 36.3588 43.0109C35.2837 41.9359 34.6118 40.8639 34.8587 40.6171L36.0038 39.472C35.7569 39.7189 36.4292 40.7905 37.5042 41.8655C38.5792 42.9405 39.6509 43.6127 39.8976 43.3659Z" fill="url(#paint5_linear_0_96)"/>
<path d="M36.199 40.2601L35.0537 41.4053C35.3183 41.8541 35.78 42.4319 36.3588 43.0108C37.4318 44.0837 38.5016 44.755 38.7511 44.5121L39.8962 43.367C39.6466 43.6099 38.5773 42.9383 37.5043 41.8654C36.9254 41.2865 36.4636 40.7088 36.199 40.2601Z" fill="url(#paint6_linear_0_96)"/>
<path d="M37.9885 45.2748L36.8434 46.4199C36.5965 46.6667 35.5246 45.9948 34.4496 44.9198C33.3746 43.8447 32.7027 42.7728 32.9495 42.5259L34.0946 41.3809C33.8478 41.6277 34.52 42.6993 35.595 43.7743C36.67 44.8494 37.7416 45.5216 37.9885 45.2748Z" fill="url(#paint7_linear_0_96)"/>
<path d="M34.2897 42.1691L33.1445 43.3143C33.4091 43.7631 33.8708 44.3409 34.4497 44.9198C35.5226 45.9927 36.5924 46.6639 36.8419 46.4211L37.987 45.276C37.7375 45.5189 36.6681 44.8473 35.5951 43.7743C35.0161 43.1954 34.5544 42.6177 34.2897 42.1691Z" fill="url(#paint8_linear_0_96)"/>
<path d="M41.4393 31.7448C40.3641 30.6696 39.2926 29.998 39.0459 30.2446L26.051 43.2396C25.8043 43.4862 26.476 44.5578 27.5512 45.633C28.6264 46.7082 29.6979 47.3798 29.9446 47.1332L42.9395 34.1383C43.1862 33.8915 42.5145 32.82 41.4393 31.7448Z" fill="url(#paint9_linear_0_96)"/>
<path d="M42.9397 34.1382C42.693 34.3849 41.6215 33.7132 40.5463 32.638C39.4711 31.5628 38.7995 30.4913 39.0461 30.2446C39.2928 29.9979 40.3643 30.6696 41.4395 31.7448C42.5147 32.82 43.1864 33.8915 42.9397 34.1382Z" fill="url(#paint10_linear_0_96)"/>
<path d="M42.2206 33.419C42.0651 33.5745 41.3895 33.151 40.7115 32.4731C40.0335 31.7951 39.61 31.1195 39.7656 30.9639C39.9211 30.8084 40.5967 31.2319 41.2747 31.9098C41.9526 32.5878 42.3762 33.2634 42.2206 33.419Z" fill="url(#paint11_linear_0_96)"/>
<path d="M42.6078 33.1332L31.435 44.306C30.3739 45.367 28.6533 45.3805 27.5836 44.3282C27.5727 44.3176 27.562 44.3069 27.5512 44.2962C27.0618 43.8067 26.6564 43.3183 26.3828 42.9079L26.051 43.2396C25.8043 43.4863 26.476 44.5578 27.5512 45.633C28.6264 46.7082 29.6979 47.3798 29.9446 47.1332L42.9395 34.1383C43.0739 34.0039 42.9352 33.6244 42.6078 33.1332Z" fill="url(#paint12_linear_0_96)"/>
<path d="M36.1808 40.8973L35.0358 42.0424C34.7889 42.2892 33.717 41.6173 32.642 40.5423C31.5669 39.4673 30.895 38.3953 31.1419 38.1485L32.287 37.0034C32.0401 37.2503 32.7124 38.3218 33.7874 39.3969C34.8624 40.4719 35.934 41.1441 36.1808 40.8973Z" fill="url(#paint13_linear_0_96)"/>
<path d="M32.4822 37.7916L31.3369 38.9369C31.6015 39.3856 32.0632 39.9634 32.642 40.5423C33.715 41.6153 34.7848 42.2864 35.0343 42.0437L36.1794 40.8986C35.9298 41.1414 34.8605 40.4699 33.7875 39.3969C33.2086 38.818 32.7469 38.2403 32.4822 37.7916Z" fill="url(#paint14_linear_0_96)"/>
<path d="M34.2717 42.8062L33.1266 43.9512C32.8797 44.1981 31.8078 43.5262 30.7328 42.4512C29.6578 41.3761 28.9859 40.3042 29.2327 40.0573L30.3778 38.9122C30.131 39.1591 30.8032 40.2306 31.8782 41.3057C32.9532 42.3807 34.0248 43.0529 34.2717 42.8062Z" fill="url(#paint15_linear_0_96)"/>
<path d="M30.573 39.7006L29.4277 40.8458C29.6923 41.2945 30.154 41.8723 30.7329 42.4512C31.8058 43.5242 32.8756 44.1953 33.1251 43.9526L34.2702 42.8075C34.0207 43.0503 32.9513 42.3787 31.8783 41.3058C31.2994 40.7269 30.8377 40.1492 30.573 39.7006Z" fill="url(#paint16_linear_0_96)"/>
<path d="M47.6249 37.9302C46.5497 36.855 45.4781 36.1834 45.2315 36.43L32.2366 49.425C31.9899 49.6717 32.6616 50.7432 33.7368 51.8184C34.812 52.8936 35.8835 53.5652 36.1302 53.3186L49.1251 40.3237C49.3717 40.077 48.7 39.0054 47.6249 37.9302Z" fill="url(#paint17_linear_0_96)"/>
<path d="M47.8998 38.2144C46.8877 37.2656 45.9402 36.7044 45.7066 36.938L32.4316 50.213C32.6962 50.6616 33.1578 51.2394 33.7368 51.8184C34.812 52.8936 35.8835 53.5652 36.1302 53.3186L49.1251 40.3237C49.35 40.0987 48.8114 39.1882 47.8998 38.2144Z" fill="url(#paint18_linear_0_96)"/>
<path d="M45.2858 37.3589L32.4316 50.2131C32.6962 50.6617 33.1578 51.2395 33.7368 51.8185C34.812 52.8936 35.8835 53.5653 36.1302 53.3187L45.654 43.7949V37.5113C45.654 37.3192 45.4217 37.223 45.2858 37.3589Z" fill="url(#paint19_linear_0_96)"/>
<path d="M49.1253 40.3236C48.8786 40.5703 47.8071 39.8986 46.7319 38.8234C45.6567 37.7482 44.985 36.6767 45.2317 36.43C45.4783 36.1834 46.5499 36.855 47.6251 37.9302C48.7003 39.0054 49.3719 40.077 49.1253 40.3236Z" fill="url(#paint20_linear_0_96)"/>
<path d="M48.4585 39.6573C48.2963 39.8195 47.5916 39.3778 46.8845 38.6706C46.1773 37.9635 45.7356 37.2587 45.8978 37.0965C46.06 36.9343 46.7648 37.376 47.4719 38.0832C48.179 38.7903 48.6208 39.4951 48.4585 39.6573Z" fill="url(#paint21_linear_0_96)"/>
<path d="M48.7933 39.3186L37.6205 50.4914C36.5595 51.5524 34.8389 51.5659 33.7691 50.5137C33.7583 50.503 33.7475 50.4923 33.7368 50.4816C33.2473 49.9921 32.842 49.5037 32.5683 49.0933L32.2366 49.425C31.9899 49.6717 32.6616 50.7432 33.7368 51.8184C34.812 52.8936 35.8835 53.5652 36.1302 53.3186L49.1251 40.3237C49.2594 40.1893 49.1208 39.8098 48.7933 39.3186Z" fill="url(#paint22_linear_0_96)"/>
<path d="M42.3664 47.0827L41.2213 48.2278C40.9745 48.4746 39.9026 47.8027 38.8275 46.7277C37.7525 45.6527 37.0806 44.5807 37.3274 44.3339L38.4725 43.1888C38.2257 43.4357 38.8979 44.5073 39.9729 45.5823C41.048 46.6573 42.1196 47.3295 42.3664 47.0827Z" fill="url(#paint23_linear_0_96)"/>
<path d="M38.6677 43.9769L37.5225 45.1222C37.787 45.571 38.2487 46.1487 38.8276 46.7276C39.9006 47.8006 40.9704 48.4718 41.2199 48.229L42.365 47.0839C42.1154 47.3267 41.0461 46.6552 39.9731 45.5822C39.3941 45.0033 38.9323 44.4256 38.6677 43.9769Z" fill="url(#paint24_linear_0_96)"/>
<path d="M40.4572 48.9916L39.3121 50.1367C39.0653 50.3836 37.9934 49.7117 36.9183 48.6366C35.8433 47.5616 35.1714 46.4897 35.4183 46.2429L36.5633 45.0978C36.3165 45.3446 36.9887 46.4162 38.0638 47.4912C39.1388 48.5663 40.2104 49.2385 40.4572 48.9916Z" fill="url(#paint25_linear_0_96)"/>
<path d="M36.7585 45.886L35.6133 47.0312C35.8779 47.48 36.3395 48.0577 36.9184 48.6366C37.9914 49.7096 39.0611 50.3808 39.3107 50.138L40.4557 48.9929C40.2062 49.2357 39.1368 48.5642 38.0639 47.4912C37.4849 46.9123 37.0232 46.3346 36.7585 45.886Z" fill="url(#paint26_linear_0_96)"/>
<path d="M44.1053 35.2647C43.0301 34.1895 41.9586 33.5179 41.7119 33.7645L28.717 46.7594C28.4704 47.0061 29.142 48.0776 30.2172 49.1528C31.2924 50.228 32.364 50.8996 32.6106 50.653L45.6055 37.6581C45.8522 37.4114 45.1805 36.3398 44.1053 35.2647Z" fill="url(#paint27_linear_0_96)"/>
<path d="M45.6047 37.658C45.3581 37.9047 44.2866 37.233 43.2114 36.1578C42.1362 35.0826 41.4645 34.0111 41.7112 33.7644C41.9578 33.5177 43.0294 34.1894 44.1046 35.2646C45.1798 36.3397 45.8514 37.4113 45.6047 37.658Z" fill="url(#paint28_linear_0_96)"/>
<path d="M44.9474 37.0001C44.7841 37.1634 44.0747 36.7187 43.3629 36.0069C42.6511 35.2951 42.2064 34.5857 42.3697 34.4224C42.533 34.2592 43.2424 34.7038 43.9542 35.4156C44.666 36.1274 45.1106 36.8368 44.9474 37.0001Z" fill="url(#paint29_linear_0_96)"/>
<path d="M45.2737 36.653L34.1009 47.8258C33.0399 48.8868 31.3193 48.9003 30.2495 47.8481C30.2387 47.8374 30.2279 47.8267 30.2172 47.816C29.7277 47.3266 29.3224 46.8381 29.0488 46.4277L28.717 46.7594C28.4704 47.0061 29.142 48.0776 30.2172 49.1528C31.2924 50.228 32.364 50.8996 32.6106 50.653L45.6055 37.6581C45.7398 37.5236 45.6012 37.1442 45.2737 36.653Z" fill="url(#paint30_linear_0_96)"/>
<path d="M38.8469 44.4171L37.7018 45.5621C37.455 45.809 36.3831 45.1371 35.308 44.0621C34.233 42.987 33.5611 41.9151 33.8079 41.6683L34.953 40.5232C34.7062 40.77 35.3784 41.8416 36.4534 42.9166C37.5285 43.9917 38.6001 44.6639 38.8469 44.4171Z" fill="url(#paint31_linear_0_96)"/>
<path d="M35.1481 41.3113L34.0029 42.4565C34.2675 42.9052 34.7292 43.483 35.3081 44.0619C36.381 45.1349 37.4508 45.8061 37.7003 45.5633L38.8454 44.4182C38.5959 44.661 37.5265 43.9895 36.4535 42.9165C35.8745 42.3376 35.4128 41.7599 35.1481 41.3113Z" fill="url(#paint32_linear_0_96)"/>
<path d="M36.9377 46.326L35.7926 47.4711C35.5457 47.7179 34.4738 47.046 33.3988 45.971C32.3238 44.896 31.6519 43.824 31.8987 43.5772L33.0438 42.4321C32.797 42.679 33.4692 43.7505 34.5442 44.8256C35.6193 45.9007 36.6908 46.5728 36.9377 46.326Z" fill="url(#paint33_linear_0_96)"/>
<path d="M33.239 43.2202L32.0938 44.3655C32.3583 44.8142 32.82 45.392 33.3989 45.9709C34.4718 47.0439 35.5416 47.715 35.7911 47.4723L36.9362 46.3272C36.6867 46.57 35.6173 45.8984 34.5444 44.8255C33.9654 44.2466 33.5036 43.6689 33.239 43.2202Z" fill="url(#paint34_linear_0_96)"/>
<path d="M47.1789 38.7983C47.0874 38.7984 46.9984 38.7687 46.9252 38.7137C46.8521 38.6588 46.7989 38.5815 46.7735 38.4936C46.7482 38.4057 46.7521 38.3119 46.7848 38.2264C46.8174 38.141 46.877 38.0684 46.9545 38.0198C48.525 37.0345 49.3561 35.0422 49.7954 33.2678C48.979 34.3634 47.9396 35.0221 47.0303 35.4164C45.3099 36.1622 43.7158 36.1342 43.6489 36.1325C43.5936 36.1312 43.539 36.119 43.4884 36.0966C43.4378 36.0743 43.3921 36.0421 43.3539 36.0021C43.3156 35.9621 43.2857 35.9149 43.2657 35.8633C43.2457 35.8116 43.2361 35.7566 43.2374 35.7013C43.2429 35.4688 43.4367 35.2843 43.6681 35.2898C43.6847 35.2903 45.1696 35.3118 46.7213 34.6315C48.7583 33.7385 49.9587 32.1016 50.2891 29.7662C50.304 29.66 50.3589 29.5634 50.4426 29.4963C50.5263 29.4292 50.6325 29.3966 50.7394 29.4052C50.8464 29.4136 50.9461 29.4625 51.0182 29.5418C51.0904 29.6212 51.1295 29.7251 51.1278 29.8323C51.1266 29.8997 51.0948 31.5024 50.6346 33.3958C50.0048 35.9874 48.9174 37.7833 47.4026 38.7337C47.3356 38.776 47.2581 38.7984 47.1789 38.7983Z" fill="url(#paint35_linear_0_96)"/>
<path d="M44.7093 35.0816C44.6062 35.0815 44.5068 35.0437 44.4298 34.9752C44.3528 34.9068 44.3035 34.8126 44.2913 34.7103C44.279 34.608 44.3046 34.5048 44.3633 34.4201C44.4219 34.3354 44.5095 34.2751 44.6096 34.2506C46.5565 33.7753 48.0519 32.4975 49.0256 31.4049C47.9184 31.9363 46.4523 32.3978 44.5416 32.5937C42.5394 32.799 41.0062 32.6176 40.9419 32.6098C40.8309 32.5963 40.7299 32.5393 40.6609 32.4513C40.592 32.3633 40.5609 32.2515 40.5744 32.1405C40.6025 31.9095 40.8127 31.7452 41.0436 31.7731C41.1144 31.7816 47.0183 32.452 50.4306 29.5065C50.5054 29.442 50.6003 29.4057 50.699 29.4041C50.7977 29.4025 50.8938 29.4355 50.9706 29.4975C51.0475 29.5595 51.1001 29.6465 51.1193 29.7433C51.1386 29.8401 51.1233 29.9405 51.076 30.0272C50.9858 30.1927 48.8211 34.0899 44.8096 35.0695C44.7767 35.0775 44.7431 35.0816 44.7093 35.0816Z" fill="url(#paint36_linear_0_96)"/>
<path d="M50.9251 30.2842C50.1008 30.8929 49.0256 31.4048 49.0256 31.4048C48.0518 32.4975 46.5564 33.7753 44.6095 34.2506C44.5558 34.2638 44.5051 34.2873 44.4605 34.32C44.4158 34.3528 44.3781 34.3939 44.3493 34.4412C44.3206 34.4885 44.3015 34.541 44.293 34.5957C44.2846 34.6504 44.287 34.7062 44.3001 34.76C44.3225 34.8517 44.375 34.9331 44.4491 34.9914C44.5233 35.0498 44.6149 35.0815 44.7092 35.0816C44.7423 35.0816 44.7759 35.0777 44.8095 35.0695C48.2771 34.2227 50.3644 31.1963 50.9251 30.2842Z" fill="url(#paint37_linear_0_96)"/>
<path d="M49.7952 33.268C49.3559 35.0423 48.5248 37.0346 46.9543 38.02C46.9074 38.0494 46.8668 38.0877 46.8347 38.1328C46.8027 38.178 46.7798 38.229 46.7675 38.2829C46.7551 38.3369 46.7535 38.3927 46.7627 38.4473C46.772 38.5019 46.7919 38.5541 46.8213 38.601C46.8807 38.6956 46.9753 38.7628 47.0842 38.7878C47.1382 38.8001 47.1941 38.8017 47.2486 38.7925C47.3032 38.7833 47.3554 38.7634 47.4023 38.734C48.9171 37.7835 50.0045 35.9876 50.6344 33.3961C51.0946 31.5026 51.1263 29.9 51.1275 29.8326C50.8085 31.5109 49.7952 33.268 49.7952 33.268Z" fill="url(#paint38_linear_0_96)"/>
<path d="M52.1069 31.5363L53.1011 31.2655C53.4469 31.1713 53.5619 30.7387 53.3084 30.4852L52.5933 29.7701C52.5352 29.712 52.4934 29.6395 52.4723 29.56C52.4512 29.4805 52.4514 29.3968 52.4731 29.3175L52.693 28.5101C52.7879 28.1618 52.4683 27.8423 52.1201 27.9372L51.3128 28.1571C51.2334 28.1787 51.1497 28.179 51.0702 28.1579C50.9907 28.1368 50.9182 28.095 50.8601 28.0368L50.1449 27.3217C49.8915 27.0682 49.4589 27.1832 49.3647 27.529L49.0938 28.5232C49.0725 28.6016 49.031 28.6731 48.9736 28.7305C48.9161 28.788 48.8446 28.8294 48.7662 28.8508L47.772 29.1216C47.4262 29.2158 47.3113 29.6485 47.5647 29.9019L48.2799 30.617C48.338 30.6752 48.3798 30.7477 48.4009 30.8272C48.422 30.9067 48.4218 30.9904 48.4002 31.0697L48.1802 31.877C48.0853 32.2253 48.4049 32.5449 48.7532 32.45L49.5605 32.2301C49.6399 32.2085 49.7235 32.2082 49.803 32.2293C49.8825 32.2505 49.955 32.2922 50.0132 32.3504L50.7283 33.0655C50.9818 33.3189 51.4144 33.204 51.5086 32.8582L51.7794 31.864C51.8007 31.7856 51.8422 31.7141 51.8996 31.6566C51.9571 31.5992 52.0285 31.5577 52.1069 31.5363Z" fill="url(#paint39_linear_0_96)"/>
<path d="M49.1765 30.6826L49.0108 31.3112C48.9531 31.5298 49.1533 31.7291 49.3717 31.6706L49.9879 31.5055C50.0381 31.4921 50.0908 31.4921 50.1409 31.5057C50.191 31.5192 50.2366 31.5457 50.2732 31.5826L50.6448 31.9574C50.8052 32.1191 51.0805 32.0454 51.1386 31.8252L51.2731 31.3148C51.2864 31.2646 51.3126 31.2188 51.3492 31.182C51.3859 31.1453 51.4315 31.1189 51.4817 31.1054L52.0979 30.9403C52.3163 30.8818 52.39 30.6092 52.2308 30.4487L51.7731 29.9871C51.737 29.9507 51.711 29.9055 51.6977 29.856C51.6845 29.8065 51.6844 29.7543 51.6975 29.7048L51.8632 29.0762C51.9208 28.8576 51.7207 28.6583 51.5023 28.7168L50.886 28.8819C50.8359 28.8953 50.7831 28.8953 50.733 28.8817C50.683 28.8682 50.6373 28.8417 50.6008 28.8048L50.2291 28.4299C50.0688 28.2683 49.7934 28.342 49.7354 28.5622L49.6008 29.0726C49.5876 29.1228 49.5613 29.1686 49.5247 29.2053C49.4881 29.2421 49.4424 29.2685 49.3923 29.282L48.776 29.4471C48.5576 29.5056 48.484 29.7782 48.6432 29.9387L49.1009 30.4003C49.137 30.4367 49.1629 30.4819 49.1762 30.5314C49.1895 30.5809 49.1896 30.633 49.1765 30.6826Z" fill="url(#paint40_linear_0_96)"/>
<path d="M49.5901 31.2474L49.761 31.8746C49.8204 32.0927 50.0933 32.1652 50.2532 32.0054L50.7043 31.5542C50.741 31.5175 50.7868 31.4912 50.8369 31.4779C50.887 31.4646 50.9398 31.4647 50.9899 31.4784L51.4992 31.6171C51.7189 31.6769 51.9205 31.4754 51.8606 31.2557L51.7219 30.7464C51.7083 30.6963 51.7081 30.6435 51.7214 30.5934C51.7347 30.5432 51.7611 30.4975 51.7978 30.4608L52.2489 30.0097C52.4088 29.8498 52.3362 29.5769 52.1181 29.5174L51.4909 29.3466C51.4415 29.3331 51.3964 29.307 51.3601 29.2707C51.3239 29.2345 51.2977 29.1894 51.2843 29.1399L51.1134 28.5127C51.054 28.2946 50.781 28.2221 50.6212 28.3819L50.17 28.8331C50.1333 28.8698 50.0876 28.8961 50.0375 28.9094C49.9873 28.9228 49.9345 28.9226 49.8845 28.9089L49.3752 28.7702C49.1554 28.7104 48.9538 28.9119 49.0137 29.1316L49.1525 29.641C49.1661 29.691 49.1663 29.7438 49.153 29.7939C49.1396 29.8441 49.1133 29.8898 49.0766 29.9265L48.6255 30.3776C48.4656 30.5375 48.5381 30.8104 48.7562 30.8699L49.3835 31.0407C49.4329 31.0542 49.478 31.0803 49.5142 31.1166C49.5505 31.1528 49.5766 31.1979 49.5901 31.2474Z" fill="url(#paint41_linear_0_96)"/>
<path d="M51.1403 30.7591L51.559 30.6451C51.7046 30.6054 51.753 30.4232 51.6463 30.3165L51.3452 30.0153C51.3207 29.9908 51.3031 29.9603 51.2942 29.9268C51.2853 29.8934 51.2854 29.8581 51.2946 29.8247L51.3872 29.4848C51.4271 29.3381 51.2926 29.2035 51.1459 29.2435L50.8059 29.3361C50.7725 29.3452 50.7373 29.3453 50.7038 29.3364C50.6703 29.3275 50.6398 29.31 50.6153 29.2855L50.3142 28.9843C50.2074 28.8776 50.0253 28.926 49.9856 29.0716L49.8716 29.4903C49.8626 29.5233 49.8451 29.5534 49.8209 29.5776C49.7967 29.6018 49.7666 29.6193 49.7336 29.6283L49.3149 29.7423C49.1693 29.782 49.1209 29.9642 49.2276 30.0709L49.5287 30.372C49.5532 30.3965 49.5708 30.427 49.5797 30.4605C49.5886 30.494 49.5885 30.5292 49.5794 30.5626L49.4868 30.9026C49.4468 31.0493 49.5814 31.1838 49.728 31.1439L50.068 31.0513C50.1014 31.0422 50.1366 31.042 50.1701 31.0509C50.2036 31.0598 50.2341 31.0774 50.2586 31.1019L50.5597 31.4031C50.6665 31.5098 50.8486 31.4614 50.8883 31.3158L51.0024 30.8971C51.0114 30.8641 51.0288 30.834 51.053 30.8098C51.0772 30.7856 51.1073 30.7681 51.1403 30.7591Z" fill="url(#paint42_linear_0_96)"/>
<path d="M51.7729 31.2679L52.5683 31.0512C52.845 30.9759 52.9369 30.6298 52.7342 30.427L52.1621 29.8549C52.1156 29.8083 52.0822 29.7503 52.0653 29.6867C52.0484 29.6232 52.0486 29.5562 52.0659 29.4927L52.2418 28.8468C52.3177 28.5682 52.0621 28.3125 51.7834 28.3884L51.1375 28.5644C51.074 28.5817 51.0071 28.5819 50.9435 28.565C50.8799 28.5481 50.8219 28.5147 50.7754 28.4682L50.2032 27.896C50.0004 27.6932 49.6543 27.7852 49.579 28.0618L49.3623 28.8572C49.3452 28.92 49.312 28.9772 49.2661 29.0231C49.2201 29.0691 49.1629 29.1023 49.1002 29.1193L48.3047 29.336C48.0281 29.4114 47.9361 29.7575 48.1389 29.9603L48.711 30.5324C48.7575 30.5789 48.791 30.6369 48.8079 30.7005C48.8248 30.7641 48.8246 30.8311 48.8073 30.8945L48.6313 31.5405C48.5554 31.8192 48.8111 32.0748 49.0897 31.9988L49.7356 31.8229C49.7991 31.8056 49.866 31.8054 49.9296 31.8223C49.9932 31.8392 50.0512 31.8726 50.0977 31.9191L50.6699 32.4913C50.8726 32.694 51.2188 32.6021 51.2941 32.3254L51.5108 31.53C51.5279 31.4673 51.5611 31.4101 51.6071 31.3642C51.653 31.3182 51.7102 31.285 51.7729 31.2679Z" fill="url(#paint43_linear_0_96)"/>
<path d="M45.8492 29.9583C46.1553 29.9583 46.4035 29.7101 46.4035 29.404C46.4035 29.0979 46.1553 28.8497 45.8492 28.8497C45.5431 28.8497 45.2949 29.0979 45.2949 29.404C45.2949 29.7101 45.5431 29.9583 45.8492 29.9583Z" fill="url(#paint44_linear_0_96)"/>
<path d="M52.6471 34.2678C52.9532 34.2678 53.2014 34.0196 53.2014 33.7135C53.2014 33.4073 52.9532 33.1592 52.6471 33.1592C52.3409 33.1592 52.0928 33.4073 52.0928 33.7135C52.0928 34.0196 52.3409 34.2678 52.6471 34.2678Z" fill="url(#paint45_linear_0_96)"/>
<path d="M46.9244 28.3373C46.9244 28.4108 46.8952 28.4813 46.8432 28.5333C46.7913 28.5853 46.7208 28.6145 46.6473 28.6145C46.5738 28.6145 46.5033 28.5853 46.4513 28.5333C46.3993 28.4813 46.3701 28.4108 46.3701 28.3373C46.3701 28.2638 46.3993 28.1933 46.4513 28.1414C46.5033 28.0894 46.5738 28.0602 46.6473 28.0602C46.7208 28.0602 46.7913 28.0894 46.8432 28.1414C46.8952 28.1933 46.9244 28.2638 46.9244 28.3373Z" fill="url(#paint46_linear_0_96)"/>
<path d="M52.6119 32.1915C52.6119 32.265 52.5827 32.3354 52.5307 32.3874C52.4788 32.4394 52.4083 32.4686 52.3348 32.4686C52.2613 32.4686 52.1908 32.4394 52.1388 32.3874C52.0868 32.3354 52.0576 32.265 52.0576 32.1915C52.0576 32.1179 52.0868 32.0475 52.1388 31.9955C52.1908 31.9435 52.2613 31.9143 52.3348 31.9143C52.4083 31.9143 52.4788 31.9435 52.5307 31.9955C52.5827 32.0475 52.6119 32.1179 52.6119 32.1915Z" fill="url(#paint47_linear_0_96)"/>
<path d="M53.9996 28.9266C53.9996 29.0001 53.9704 29.0706 53.9184 29.1225C53.8665 29.1745 53.796 29.2037 53.7225 29.2037C53.649 29.2037 53.5785 29.1745 53.5265 29.1225C53.4745 29.0706 53.4453 29.0001 53.4453 28.9266C53.4453 28.8531 53.4745 28.7826 53.5265 28.7306C53.5785 28.6786 53.649 28.6494 53.7225 28.6494C53.796 28.6494 53.8665 28.6786 53.9184 28.7306C53.9704 28.7826 53.9996 28.8531 53.9996 28.9266Z" fill="url(#paint48_linear_0_96)"/>
<path d="M51.6812 26.9076C51.6812 26.9811 51.652 27.0516 51.6001 27.1036C51.5481 27.1556 51.4776 27.1848 51.4041 27.1848C51.3306 27.1848 51.2601 27.1556 51.2081 27.1036C51.1562 27.0516 51.127 26.9811 51.127 26.9076C51.127 26.8341 51.1562 26.7636 51.2081 26.7117C51.2601 26.6597 51.3306 26.6305 51.4041 26.6305C51.4776 26.6305 51.5481 26.6597 51.6001 26.7117C51.652 26.7636 51.6812 26.8341 51.6812 26.9076Z" fill="url(#paint49_linear_0_96)"/>
</g>
<path d="M0 100C0 93.3726 5.37258 88 12 88H68C74.6274 88 80 93.3726 80 100V156C80 162.627 74.6274 168 68 168H12C5.37258 168 0 162.627 0 156V100Z" fill="#161734"/>
<g clip-path="url(#clip1_0_96)">
<path d="M43.1428 142H29.1809C27.4242 142 26 140.576 26 138.819V124.857C26 123.1 27.4242 121.676 29.1809 121.676H43.1428C44.8996 121.676 46.3237 123.1 46.3237 124.857V138.819C46.3237 140.576 44.8996 142 43.1428 142Z" fill="url(#paint50_linear_0_96)"/>
<path d="M46.324 124.857V138.819C46.324 140.576 44.8998 142 43.143 142H40.9458C42.7027 142 44.1268 140.576 44.1268 138.819C44.1268 137.095 42.7289 135.697 41.0046 135.697H35.4847C33.7279 135.697 32.3037 134.272 32.3037 132.516V121.676H43.143C44.8998 121.676 46.324 123.101 46.324 124.857Z" fill="url(#paint51_linear_0_96)"/>
<path d="M30.4787 128.436C31.7387 128.436 32.7602 127.415 32.7602 126.155C32.7602 124.895 31.7387 123.873 30.4787 123.873C29.2187 123.873 28.1973 124.895 28.1973 126.155C28.1973 127.415 29.2187 128.436 30.4787 128.436Z" fill="url(#paint52_linear_0_96)"/>
<path d="M30.4787 139.803C31.7387 139.803 32.7602 138.781 32.7602 137.521C32.7602 136.261 31.7387 135.24 30.4787 135.24C29.2187 135.24 28.1973 136.261 28.1973 137.521C28.1973 138.781 29.2187 139.803 30.4787 139.803Z" fill="url(#paint53_linear_0_96)"/>
<path d="M41.8449 128.436C43.1049 128.436 44.1264 127.415 44.1264 126.155C44.1264 124.895 43.1049 123.873 41.8449 123.873C40.5849 123.873 39.5635 124.895 39.5635 126.155C39.5635 127.415 40.5849 128.436 41.8449 128.436Z" fill="url(#paint54_linear_0_96)"/>
<path d="M41.8449 139.803C43.1049 139.803 44.1264 138.781 44.1264 137.521C44.1264 136.261 43.1049 135.24 41.8449 135.24C40.5849 135.24 39.5635 136.261 39.5635 137.521C39.5635 138.781 40.5849 139.803 41.8449 139.803Z" fill="url(#paint55_linear_0_96)"/>
<path d="M50.8196 134.324H36.8577C35.1009 134.324 33.6768 132.9 33.6768 131.143V117.181C33.6768 115.424 35.1009 114 36.8577 114H50.8196C52.5763 114 54.0005 115.424 54.0005 117.181V131.143C54.0005 132.9 52.5763 134.324 50.8196 134.324Z" fill="url(#paint56_linear_0_96)"/>
<path d="M38.1545 120.76C39.4145 120.76 40.4359 119.739 40.4359 118.479C40.4359 117.219 39.4145 116.197 38.1545 116.197C36.8945 116.197 35.873 117.219 35.873 118.479C35.873 119.739 36.8945 120.76 38.1545 120.76Z" fill="url(#paint57_linear_0_96)"/>
<path d="M49.5217 132.127C50.7817 132.127 51.8031 131.105 51.8031 129.845C51.8031 128.585 50.7817 127.564 49.5217 127.564C48.2617 127.564 47.2402 128.585 47.2402 129.845C47.2402 131.105 48.2617 132.127 49.5217 132.127Z" fill="url(#paint58_linear_0_96)"/>
<path d="M43.8381 126.443C45.0981 126.443 46.1195 125.422 46.1195 124.162C46.1195 122.902 45.0981 121.88 43.8381 121.88C42.5781 121.88 41.5566 122.902 41.5566 124.162C41.5566 125.422 42.5781 126.443 43.8381 126.443Z" fill="url(#paint59_linear_0_96)"/>
<path d="M50.8192 114H48.6221C50.3788 114 51.803 115.424 51.803 117.181V131.143C51.803 132.9 50.3788 134.324 48.6221 134.324H50.8192C52.576 134.324 54.0002 132.9 54.0002 131.143V117.181C54.0002 115.424 52.576 114 50.8192 114Z" fill="url(#paint60_linear_0_96)"/>
<path d="M41.8451 135.24C41.351 135.239 40.8703 135.4 40.4756 135.697H41.0042C42.488 135.697 43.7291 136.732 44.0468 138.119C44.0997 137.924 44.1265 137.723 44.1265 137.521C44.1265 136.261 43.1051 135.24 41.8451 135.24Z" fill="url(#paint61_linear_0_96)"/>
<path d="M32.3037 127.524C32.6009 127.13 32.7612 126.649 32.7604 126.155C32.7612 125.661 32.6008 125.18 32.3037 124.786V127.524Z" fill="url(#paint62_linear_0_96)"/>
</g>
<path d="M0 188C0 181.373 5.37258 176 12 176H68C74.6274 176 80 181.373 80 188V244C80 250.627 74.6274 256 68 256H12C5.37258 256 0 250.627 0 244V188Z" fill="#161734"/>
<g clip-path="url(#clip2_0_96)">
<path fill-rule="evenodd" clip-rule="evenodd" d="M39.9998 202.001C47.719 202.001 53.999 208.281 53.999 216C53.999 223.719 47.719 229.999 39.9998 229.999C32.2807 229.999 26.0007 223.719 26.0007 216C26.0007 208.281 32.2807 202.001 39.9998 202.001Z" fill="url(#paint63_linear_0_96)"/>
<path fill-rule="evenodd" clip-rule="evenodd" d="M51.0273 207.386C51.1622 207.558 51.2931 207.733 51.4199 207.912L51.4194 207.912C50.2139 208.81 48.6574 209.717 47.3175 210.287C41.0434 212.959 34.0428 211.988 28.5776 207.914C28.7042 207.736 28.8351 207.561 28.97 207.388C35.6672 212.372 44.3193 212.376 51.0275 207.386L51.0273 207.386Z" fill="url(#paint64_linear_0_96)"/>
<path fill-rule="evenodd" clip-rule="evenodd" d="M53.9951 215.672L53.9951 216.328L26.0053 216.328L26.0053 215.672L53.9951 215.672Z" fill="url(#paint65_linear_0_96)"/>
<path fill-rule="evenodd" clip-rule="evenodd" d="M51.4287 224.076C51.3022 224.255 51.1713 224.43 51.0368 224.602C50.1894 224.009 49.5449 223.578 48.6388 223.083C43.7054 220.385 37.7938 220.155 32.6807 222.43C31.4818 222.963 30.1015 223.86 29.0154 224.668C28.8797 224.496 28.748 224.321 28.6205 224.144C29.5947 223.373 31.3638 222.288 32.4799 221.796C37.7326 219.481 43.8633 219.731 48.9094 222.479C49.5935 222.852 50.8076 223.596 51.4285 224.076L51.4287 224.076Z" fill="url(#paint66_linear_0_96)"/>
<path fill-rule="evenodd" clip-rule="evenodd" d="M39.9999 202.001C40.1666 202.001 40.3323 202.005 40.4975 202.01C40.7689 205.677 40.4491 224.463 40.3594 229.994L39.7103 229.995C39.787 225.891 39.8577 220.14 39.9013 216.296C39.9682 210.4 39.972 204.198 39.8372 202.003C39.8913 202.002 39.9453 202.001 39.9997 202.001L39.9999 202.001Z" fill="url(#paint67_linear_0_96)"/>
</g>
<path d="M0 276C0 269.373 5.37258 264 12 264H68C74.6274 264 80 269.373 80 276V332C80 338.627 74.6274 344 68 344H12C5.37258 344 0 338.627 0 332V276Z" fill="#161734"/>
<path d="M43.2247 300.94C41.5162 299.482 39.4108 298.925 37.6374 298.952C37.3082 298.957 36.9917 298.825 36.7589 298.592L34.8731 296.706L29.5254 302.054L31.0883 303.617C31.5082 304.037 31.7475 304.599 31.778 305.192C31.8331 306.266 32.1899 307.359 32.8029 308.428C33.4508 308.465 35.5534 310.169 36.031 310.728C37.2691 312.179 37.7212 312.27 38.2562 314.143C39.6197 315.057 40.8856 315.424 41.6963 314.613C42.2243 314.085 42.2243 313.229 41.6963 312.701C42.2243 313.229 43.0804 313.229 43.6084 312.701C44.1364 312.173 44.1364 311.317 43.6084 310.789C44.1364 311.317 44.9925 311.317 45.5205 310.789C46.0485 310.261 46.0485 309.405 45.5205 308.877C46.0485 309.405 46.9046 309.405 47.4326 308.877C47.9472 308.362 47.9875 307.664 47.7143 306.875C47.7139 304.578 45.1758 302.606 43.2247 300.94Z" fill="url(#paint68_linear_0_96)"/>
<path d="M44.2858 302.395L44.2858 302.395C43.1477 303.29 41.6489 302.504 40.642 301.714C40.3313 301.47 39.9487 301.336 39.5539 301.321C38.604 301.285 37.8782 301.204 37.3321 301.077C36.9021 300.978 36.4635 301.204 36.2991 301.614C36.0958 302.12 36.3903 302.69 36.9214 302.815C38.1829 303.113 39.4731 303.065 39.5397 303.118C41.576 304.716 42.905 304.532 43.1252 304.578C44.5694 304.578 45.411 303.766 45.4729 303.732C45.4761 303.728 45.4988 303.707 45.5397 303.665C45.5396 302.888 44.9143 302.395 44.2858 302.395Z" fill="#FFAF8B"/>
<path d="M29.2594 296.44C30.0689 295.631 31.0354 294.626 32.0108 293.7C32.7391 293.009 33.8796 293.009 34.6144 293.693C35.1234 294.167 35.6522 294.725 36.0759 295.233C36.6796 295.957 36.7302 296.996 36.1916 297.77C35.5831 298.644 34.7171 299.651 33.5939 300.775C32.4707 301.898 31.4631 302.764 30.5892 303.372C29.8156 303.911 28.7762 303.86 28.0523 303.257C27.5443 302.833 26.9858 302.304 26.5119 301.795C25.8277 301.06 25.8285 299.92 26.5196 299.192C27.4454 298.216 28.4498 297.25 29.2594 296.44Z" fill="url(#paint69_linear_0_96)"/>
<path d="M33.7646 311.114C33.2451 310.595 33.2451 309.753 33.7646 309.233L34.4394 308.558C34.9589 308.039 35.801 308.039 36.3204 308.558C36.8398 309.078 36.8398 309.92 36.3204 310.439L35.6456 311.114C35.1261 311.633 34.284 311.633 33.7646 311.114Z" fill="url(#paint70_linear_0_96)"/>
<path d="M31.8835 309.233C31.3927 308.742 31.3174 307.791 32.1573 306.951C32.9973 306.111 33.9484 306.187 34.4392 306.677C34.9586 307.197 34.9586 308.039 34.4392 308.558L33.7643 309.233C33.245 309.752 32.4029 309.752 31.8835 309.233Z" fill="url(#paint71_linear_0_96)"/>
<path d="M35.6454 312.995C35.126 312.476 35.126 311.633 35.6454 311.114L36.3202 310.439C36.8397 309.92 37.6818 309.92 38.2012 310.439C38.7206 310.959 38.7206 311.801 38.2012 312.32L37.5264 312.995C37.0069 313.514 36.1648 313.514 35.6454 312.995Z" fill="url(#paint72_linear_0_96)"/>
<path d="M37.5263 314.876C38.0171 315.367 38.9682 315.442 39.8082 314.602C40.6482 313.762 40.5728 312.811 40.082 312.32C39.5626 311.801 38.7205 311.801 38.2011 312.32L37.5263 312.995C37.0069 313.514 37.0069 314.356 37.5263 314.876Z" fill="url(#paint73_linear_0_96)"/>
<path d="M50.475 301.632L45.1273 296.285L43.9683 297.444C43.5121 297.9 42.8505 298.074 42.224 297.92C41.7912 297.814 41.3126 297.75 40.7855 297.75C36.9197 297.75 35.8594 298.679 35.8594 299.749C35.8594 300.695 36.6912 301.214 39.5611 301.321C39.9533 301.336 40.3332 301.471 40.6418 301.714C41.6488 302.504 43.1475 303.29 44.2856 302.395C45.8126 303.845 47.2385 305.499 47.7142 306.874C48.1871 306.087 48.4345 305.31 48.4583 304.538C48.4765 303.945 48.7243 303.383 49.1436 302.964L50.475 301.632Z" fill="url(#paint74_linear_0_96)"/>
<path d="M50.7406 296.019C49.931 295.209 48.9645 294.205 47.9891 293.279C47.2609 292.588 46.1204 292.587 45.3856 293.271C44.8765 293.745 44.3478 294.304 43.9241 294.812C43.3203 295.536 43.2697 296.575 43.8084 297.348C44.4168 298.222 45.2828 299.23 46.4061 300.353C47.5293 301.476 48.5369 302.342 49.4107 302.951C50.1843 303.489 51.2237 303.439 51.9476 302.835C52.4556 302.411 53.0141 301.883 53.488 301.374C54.1722 300.639 54.1714 299.498 53.4803 298.77C52.5546 297.795 51.5501 296.828 50.7406 296.019Z" fill="url(#paint75_linear_0_96)"/>
<path d="M50.6539 301.194C51.324 301.194 51.8673 300.651 51.8673 299.981C51.8673 299.311 51.324 298.767 50.6539 298.767C49.9837 298.767 49.4404 299.311 49.4404 299.981C49.4404 300.651 49.9837 301.194 50.6539 301.194Z" fill="url(#paint76_linear_0_96)"/>
<path d="M29.3462 301.616C30.0164 301.616 30.5597 301.072 30.5597 300.402C30.5597 299.732 30.0164 299.189 29.3462 299.189C28.6761 299.189 28.1328 299.732 28.1328 300.402C28.1328 301.072 28.6761 301.616 29.3462 301.616Z" fill="url(#paint77_linear_0_96)"/>
<path d="M45.5206 309.295C45.4657 309.295 45.4112 309.285 45.3605 309.264C45.3097 309.243 45.2636 309.212 45.2248 309.173L44.5353 308.483C44.4574 308.405 44.4138 308.298 44.414 308.188C44.4143 308.077 44.4583 307.971 44.5365 307.893C44.6148 307.815 44.7208 307.771 44.8314 307.77C44.9421 307.77 45.0483 307.814 45.1269 307.892L45.8164 308.581C45.8949 308.66 45.9389 308.766 45.9389 308.877C45.9389 308.988 45.8949 309.094 45.8164 309.173C45.7776 309.212 45.7315 309.243 45.6808 309.264C45.63 309.285 45.5756 309.295 45.5206 309.295ZM43.6085 311.207C43.5535 311.207 43.4991 311.197 43.4484 311.176C43.3976 311.155 43.3515 311.124 43.3127 311.085L42.6232 310.395C42.5453 310.317 42.5017 310.211 42.5019 310.1C42.5021 309.989 42.5462 309.883 42.6244 309.805C42.7026 309.727 42.8087 309.683 42.9193 309.683C43.0299 309.682 43.1362 309.726 43.2148 309.804L43.9043 310.493C43.9628 310.552 44.0027 310.626 44.0188 310.707C44.035 310.789 44.0267 310.873 43.995 310.949C43.9634 311.026 43.9097 311.091 43.8409 311.137C43.7721 311.183 43.6912 311.207 43.6085 311.207ZM41.6964 313.12C41.6414 313.12 41.587 313.109 41.5362 313.088C41.4855 313.067 41.4394 313.036 41.4006 312.997L40.7111 312.307C40.6332 312.229 40.5896 312.123 40.5898 312.012C40.5901 311.901 40.6341 311.795 40.7124 311.717C40.7906 311.639 40.8966 311.595 41.0073 311.595C41.1179 311.594 41.2241 311.638 41.3027 311.716L41.9922 312.405C42.0507 312.464 42.0906 312.538 42.1067 312.62C42.1229 312.701 42.1146 312.785 42.0829 312.861C42.0512 312.938 41.9976 313.003 41.9288 313.049C41.86 313.095 41.7791 313.12 41.6964 313.12Z" fill="#FFAF8B"/>
<path d="M0 364C0 357.373 5.37258 352 12 352H68C74.6274 352 80 357.373 80 364V420C80 426.627 74.6274 432 68 432H12C5.37258 432 0 426.627 0 420V364Z" fill="#161734"/>
<path d="M36.5555 388.506C37.7307 388.191 38.7193 389.46 38.1049 390.526C37.7259 391.183 36.8797 391.409 36.2228 391.03C35.1665 390.42 35.3721 388.824 36.5555 388.506ZM39.7804 395.416C39.6593 395.416 39.5386 395.432 39.4216 395.463C38.2395 395.781 38.029 397.374 39.0897 397.987C39.7465 398.366 40.5924 398.139 40.9715 397.482C41.504 396.56 40.83 395.416 39.7804 395.416ZM49.5771 391.255L43.1294 402.422C42.2232 403.992 40.2106 404.528 38.6454 403.624L29.2673 398.21C27.6963 397.303 27.1631 395.289 28.0658 393.725L34.5133 382.558C35.0349 381.655 35.8576 381.098 36.8902 380.95L43.7065 379.973C44.7602 379.822 45.7476 380.148 46.5088 380.903L46.5085 380.903C46.8167 381.218 47.0552 381.592 47.2191 382.001L49.7813 388.393C50.169 389.36 50.0983 390.353 49.5771 391.255ZM36.9086 391.655C38.1089 391.655 38.9785 390.52 38.6693 389.366C38.4088 388.394 37.4111 387.819 36.4411 388.079C35.9715 388.205 35.5791 388.506 35.336 388.927C34.6368 390.138 35.519 391.656 36.9086 391.655ZM41.536 396.323C41.2756 395.351 40.2777 394.776 39.3072 395.036C38.3353 395.296 37.7612 396.294 38.021 397.264C38.2347 398.063 38.9568 398.613 39.7755 398.613C40.9747 398.612 41.8453 397.478 41.536 396.323ZM41.9318 390.989L34.5374 395.258C34.2836 395.405 34.5076 395.786 34.7584 395.641L42.1528 391.372C42.4045 391.226 42.1836 390.844 41.9318 390.989ZM44.7078 382.295C43.8404 381.794 42.7212 382.096 42.2222 382.961C41.7215 383.828 42.0207 384.945 42.8881 385.446C43.7559 385.947 44.8698 385.654 45.3737 384.78C45.8741 383.913 45.5751 382.796 44.7078 382.295ZM51.1942 384.578L47.5946 381.749L50.1913 388.228C50.6316 389.326 50.5518 390.451 49.96 391.476L43.7347 402.258H49.2879C50.9891 402.258 52.3733 400.874 52.3733 399.173V387.004C52.3733 386.024 51.9648 385.184 51.1942 384.578Z" fill="url(#paint78_linear_0_96)"/>
<defs>
<linearGradient id="paint0_linear_0_96" x1="36.5175" y1="39.46" x2="39.8727" y2="42.8153" gradientUnits="userSpaceOnUse">
<stop stop-color="#FF7044"/>
<stop offset="1" stop-color="#F82814"/>
</linearGradient>
<linearGradient id="paint1_linear_0_96" x1="39.4523" y1="46.7865" x2="35.671" y2="28.7571" gradientUnits="userSpaceOnUse">
<stop stop-color="#FF7044" stop-opacity="0"/>
<stop offset="1" stop-color="#FFA325"/>
</linearGradient>
<linearGradient id="paint2_linear_0_96" x1="44.9984" y1="34.1263" x2="44.4042" y2="35.2031" gradientUnits="userSpaceOnUse">
<stop stop-color="#FF7044"/>
<stop offset="1" stop-color="#F82814"/>
</linearGradient>
<linearGradient id="paint3_linear_0_96" x1="44.9096" y1="34.2873" x2="44.4966" y2="35.0358" gradientUnits="userSpaceOnUse">
<stop stop-color="#F82814" stop-opacity="0"/>
<stop offset="1" stop-color="#C0272D"/>
</linearGradient>
<linearGradient id="paint4_linear_0_96" x1="38.4431" y1="43.0696" x2="39.3829" y2="50.7757" gradientUnits="userSpaceOnUse">
<stop stop-color="#F82814" stop-opacity="0"/>
<stop offset="1" stop-color="#C0272D"/>
</linearGradient>
<linearGradient id="paint5_linear_0_96" x1="35.46" y1="40.5173" x2="38.8156" y2="43.8729" gradientUnits="userSpaceOnUse">
<stop stop-color="#FFD945"/>
<stop offset="0.304" stop-color="#FFCD3E"/>
<stop offset="0.856" stop-color="#FFAD2B"/>
<stop offset="1" stop-color="#FFA325"/>
</linearGradient>
<linearGradient id="paint6_linear_0_96" x1="36.7082" y1="41.7667" x2="35.4979" y2="40.5564" gradientUnits="userSpaceOnUse">
<stop stop-color="#FFD945" stop-opacity="0"/>
<stop offset="1" stop-color="#FBED21"/>
</linearGradient>
<linearGradient id="paint7_linear_0_96" x1="33.5508" y1="42.4262" x2="36.9064" y2="45.7818" gradientUnits="userSpaceOnUse">
<stop stop-color="#FFD945"/>
<stop offset="0.304" stop-color="#FFCD3E"/>
<stop offset="0.856" stop-color="#FFAD2B"/>
<stop offset="1" stop-color="#FFA325"/>
</linearGradient>
<linearGradient id="paint8_linear_0_96" x1="34.7989" y1="43.6756" x2="33.5887" y2="42.4654" gradientUnits="userSpaceOnUse">
<stop stop-color="#FFD945" stop-opacity="0"/>
<stop offset="1" stop-color="#FBED21"/>
</linearGradient>
<linearGradient id="paint9_linear_0_96" x1="32.8007" y1="36.9913" x2="36.1559" y2="40.3466" gradientUnits="userSpaceOnUse">
<stop stop-color="#FF7044"/>
<stop offset="1" stop-color="#F82814"/>
</linearGradient>
<linearGradient id="paint10_linear_0_96" x1="41.2815" y1="31.6576" x2="40.6874" y2="32.7345" gradientUnits="userSpaceOnUse">
<stop stop-color="#FF7044"/>
<stop offset="1" stop-color="#F82814"/>
</linearGradient>
<linearGradient id="paint11_linear_0_96" x1="41.2847" y1="31.8998" x2="40.5381" y2="32.6464" gradientUnits="userSpaceOnUse">
<stop stop-color="#F82814" stop-opacity="0"/>
<stop offset="1" stop-color="#C0272D"/>
</linearGradient>
<linearGradient id="paint12_linear_0_96" x1="34.7263" y1="40.6009" x2="35.6661" y2="48.307" gradientUnits="userSpaceOnUse">
<stop stop-color="#F82814" stop-opacity="0"/>
<stop offset="1" stop-color="#C0272D"/>
</linearGradient>
<linearGradient id="paint13_linear_0_96" x1="31.7432" y1="38.0486" x2="35.0987" y2="41.4042" gradientUnits="userSpaceOnUse">
<stop stop-color="#FFD945"/>
<stop offset="0.304" stop-color="#FFCD3E"/>
<stop offset="0.856" stop-color="#FFAD2B"/>
<stop offset="1" stop-color="#FFA325"/>
</linearGradient>
<linearGradient id="paint14_linear_0_96" x1="32.9913" y1="39.2981" x2="31.7811" y2="38.0879" gradientUnits="userSpaceOnUse">
<stop stop-color="#FFD945" stop-opacity="0"/>
<stop offset="1" stop-color="#FBED21"/>
</linearGradient>
<linearGradient id="paint15_linear_0_96" x1="29.834" y1="39.9575" x2="33.1895" y2="43.3131" gradientUnits="userSpaceOnUse">
<stop stop-color="#FFD945"/>
<stop offset="0.304" stop-color="#FFCD3E"/>
<stop offset="0.856" stop-color="#FFAD2B"/>
<stop offset="1" stop-color="#FFA325"/>
</linearGradient>
<linearGradient id="paint16_linear_0_96" x1="31.0821" y1="41.2071" x2="29.8719" y2="39.9968" gradientUnits="userSpaceOnUse">
<stop stop-color="#FFD945" stop-opacity="0"/>
<stop offset="1" stop-color="#FBED21"/>
</linearGradient>
<linearGradient id="paint17_linear_0_96" x1="38.9862" y1="43.1769" x2="42.3415" y2="46.5321" gradientUnits="userSpaceOnUse">
<stop stop-color="#FF7044"/>
<stop offset="1" stop-color="#F82814"/>
</linearGradient>
<linearGradient id="paint18_linear_0_96" x1="41.921" y1="50.5033" x2="38.1398" y2="32.4739" gradientUnits="userSpaceOnUse">
<stop stop-color="#FF7044" stop-opacity="0"/>
<stop offset="1" stop-color="#FFA325"/>
</linearGradient>
<linearGradient id="paint19_linear_0_96" x1="40.8176" y1="45.8936" x2="38.8504" y2="43.688" gradientUnits="userSpaceOnUse">
<stop stop-color="#F82814" stop-opacity="0"/>
<stop offset="1" stop-color="#C0272D"/>
</linearGradient>
<linearGradient id="paint20_linear_0_96" x1="47.4672" y1="37.8431" x2="46.873" y2="38.92" gradientUnits="userSpaceOnUse">
<stop stop-color="#FF7044"/>
<stop offset="1" stop-color="#F82814"/>
</linearGradient>
<linearGradient id="paint21_linear_0_96" x1="47.3671" y1="38.0239" x2="46.9764" y2="38.7322" gradientUnits="userSpaceOnUse">
<stop stop-color="#F82814" stop-opacity="0"/>
<stop offset="1" stop-color="#C0272D"/>
</linearGradient>
<linearGradient id="paint22_linear_0_96" x1="40.9119" y1="46.7864" x2="41.8517" y2="54.4925" gradientUnits="userSpaceOnUse">
<stop stop-color="#F82814" stop-opacity="0"/>
<stop offset="1" stop-color="#C0272D"/>
</linearGradient>
<linearGradient id="paint23_linear_0_96" x1="37.9287" y1="44.2341" x2="41.2843" y2="47.5897" gradientUnits="userSpaceOnUse">
<stop stop-color="#FFD945"/>
<stop offset="0.304" stop-color="#FFCD3E"/>
<stop offset="0.856" stop-color="#FFAD2B"/>
<stop offset="1" stop-color="#FFA325"/>
</linearGradient>
<linearGradient id="paint24_linear_0_96" x1="39.1769" y1="45.4835" x2="37.9666" y2="44.2733" gradientUnits="userSpaceOnUse">
<stop stop-color="#FFD945" stop-opacity="0"/>
<stop offset="1" stop-color="#FBED21"/>
</linearGradient>
<linearGradient id="paint25_linear_0_96" x1="36.0196" y1="46.1431" x2="39.3752" y2="49.4987" gradientUnits="userSpaceOnUse">
<stop stop-color="#FFD945"/>
<stop offset="0.304" stop-color="#FFCD3E"/>
<stop offset="0.856" stop-color="#FFAD2B"/>
<stop offset="1" stop-color="#FFA325"/>
</linearGradient>
<linearGradient id="paint26_linear_0_96" x1="37.2677" y1="47.3926" x2="36.0574" y2="46.1824" gradientUnits="userSpaceOnUse">
<stop stop-color="#FFD945" stop-opacity="0"/>
<stop offset="1" stop-color="#FBED21"/>
</linearGradient>
<linearGradient id="paint27_linear_0_96" x1="36.0518" y1="41.0963" x2="38.4513" y2="43.4959" gradientUnits="userSpaceOnUse">
<stop stop-color="#FF7044"/>
<stop offset="1" stop-color="#F82814"/>
</linearGradient>
<linearGradient id="paint28_linear_0_96" x1="43.9466" y1="35.1774" x2="43.3524" y2="36.2543" gradientUnits="userSpaceOnUse">
<stop stop-color="#FF7044"/>
<stop offset="1" stop-color="#F82814"/>
</linearGradient>
<linearGradient id="paint29_linear_0_96" x1="43.8487" y1="35.3559" x2="43.4554" y2="36.0689" gradientUnits="userSpaceOnUse">
<stop stop-color="#F82814" stop-opacity="0"/>
<stop offset="1" stop-color="#C0272D"/>
</linearGradient>
<linearGradient id="paint30_linear_0_96" x1="37.3922" y1="44.1208" x2="38.332" y2="51.8268" gradientUnits="userSpaceOnUse">
<stop stop-color="#F82814" stop-opacity="0"/>
<stop offset="1" stop-color="#C0272D"/>
</linearGradient>
<linearGradient id="paint31_linear_0_96" x1="34.4092" y1="41.5685" x2="37.7648" y2="44.9241" gradientUnits="userSpaceOnUse">
<stop stop-color="#FFD945"/>
<stop offset="0.304" stop-color="#FFCD3E"/>
<stop offset="0.856" stop-color="#FFAD2B"/>
<stop offset="1" stop-color="#FFA325"/>
</linearGradient>
<linearGradient id="paint32_linear_0_96" x1="35.6573" y1="42.8179" x2="34.447" y2="41.6076" gradientUnits="userSpaceOnUse">
<stop stop-color="#FFD945" stop-opacity="0"/>
<stop offset="1" stop-color="#FBED21"/>
</linearGradient>
<linearGradient id="paint33_linear_0_96" x1="32.5" y1="43.4774" x2="35.8555" y2="46.833" gradientUnits="userSpaceOnUse">
<stop stop-color="#FFD945"/>
<stop offset="0.304" stop-color="#FFCD3E"/>
<stop offset="0.856" stop-color="#FFAD2B"/>
<stop offset="1" stop-color="#FFA325"/>
</linearGradient>
<linearGradient id="paint34_linear_0_96" x1="33.7481" y1="44.7268" x2="32.5378" y2="43.5166" gradientUnits="userSpaceOnUse">
<stop stop-color="#FFD945" stop-opacity="0"/>
<stop offset="1" stop-color="#FBED21"/>
</linearGradient>
<linearGradient id="paint35_linear_0_96" x1="46.7042" y1="31.7103" x2="48.763" y2="36.2646" gradientUnits="userSpaceOnUse">
<stop stop-color="#8A7889"/>
<stop offset="1" stop-color="#6E566E"/>
</linearGradient>
<linearGradient id="paint36_linear_0_96" x1="46.1548" y1="31.4613" x2="47.964" y2="34.1439" gradientUnits="userSpaceOnUse">
<stop stop-color="#8A7889"/>
<stop offset="1" stop-color="#6E566E"/>
</linearGradient>
<linearGradient id="paint37_linear_0_96" x1="47.7035" y1="33.9056" x2="47.57" y2="31.9415" gradientUnits="userSpaceOnUse">
<stop stop-color="#6E566E" stop-opacity="0"/>
<stop offset="0.526" stop-color="#554156" stop-opacity="0.526"/>
<stop offset="1" stop-color="#433244"/>
</linearGradient>
<linearGradient id="paint38_linear_0_96" x1="50.3938" y1="35.3141" x2="48.069" y2="33.5447" gradientUnits="userSpaceOnUse">
<stop stop-color="#6E566E" stop-opacity="0"/>
<stop offset="0.526" stop-color="#554156" stop-opacity="0.526"/>
<stop offset="1" stop-color="#433244"/>
</linearGradient>
<linearGradient id="paint39_linear_0_96" x1="50.4317" y1="28.3231" x2="50.4317" y2="33.0232" gradientUnits="userSpaceOnUse">
<stop stop-color="#FFD945"/>
<stop offset="0.304" stop-color="#FFCD3E"/>
<stop offset="0.856" stop-color="#FFAD2B"/>
<stop offset="1" stop-color="#FFA325"/>
</linearGradient>
<linearGradient id="paint40_linear_0_96" x1="49.571" y1="29.3276" x2="51.8225" y2="31.5792" gradientUnits="userSpaceOnUse">
<stop stop-color="#FF7044" stop-opacity="0"/>
<stop offset="1" stop-color="#FFA325"/>
</linearGradient>
<linearGradient id="paint41_linear_0_96" x1="52.1828" y1="30.8918" x2="47.0848" y2="28.8415" gradientUnits="userSpaceOnUse">
<stop stop-color="#FF7044" stop-opacity="0"/>
<stop offset="1" stop-color="#FFA325"/>
</linearGradient>
<linearGradient id="paint42_linear_0_96" x1="50.432" y1="29.4026" x2="50.4321" y2="31.3818" gradientUnits="userSpaceOnUse">
<stop stop-color="#FF7044"/>
<stop offset="1" stop-color="#F82814"/>
</linearGradient>
<linearGradient id="paint43_linear_0_96" x1="50.7994" y1="30.5084" x2="47.1567" y2="27.3493" gradientUnits="userSpaceOnUse">
<stop stop-color="white" stop-opacity="0"/>
<stop offset="1" stop-color="white"/>
</linearGradient>
<linearGradient id="paint44_linear_0_96" x1="45.6879" y1="29.2427" x2="46.3277" y2="29.8825" gradientUnits="userSpaceOnUse">
<stop stop-color="#FFD945"/>
<stop offset="0.304" stop-color="#FFCD3E"/>
<stop offset="0.856" stop-color="#FFAD2B"/>
<stop offset="1" stop-color="#FFA325"/>
</linearGradient>
<linearGradient id="paint45_linear_0_96" x1="52.4857" y1="33.5521" x2="53.1256" y2="34.192" gradientUnits="userSpaceOnUse">
<stop stop-color="#FFD945"/>
<stop offset="0.304" stop-color="#FFCD3E"/>
<stop offset="0.856" stop-color="#FFAD2B"/>
<stop offset="1" stop-color="#FFA325"/>
</linearGradient>
<linearGradient id="paint46_linear_0_96" x1="46.5666" y1="28.2567" x2="46.8866" y2="28.5766" gradientUnits="userSpaceOnUse">
<stop stop-color="#FFD945"/>
<stop offset="0.304" stop-color="#FFCD3E"/>
<stop offset="0.856" stop-color="#FFAD2B"/>
<stop offset="1" stop-color="#FFA325"/>
</linearGradient>
<linearGradient id="paint47_linear_0_96" x1="52.2541" y1="32.1107" x2="52.574" y2="32.4307" gradientUnits="userSpaceOnUse">
<stop stop-color="#FFD945"/>
<stop offset="0.304" stop-color="#FFCD3E"/>
<stop offset="0.856" stop-color="#FFAD2B"/>
<stop offset="1" stop-color="#FFA325"/>
</linearGradient>
<linearGradient id="paint48_linear_0_96" x1="53.6418" y1="28.8459" x2="53.9617" y2="29.1658" gradientUnits="userSpaceOnUse">
<stop stop-color="#FFD945"/>
<stop offset="0.304" stop-color="#FFCD3E"/>
<stop offset="0.856" stop-color="#FFAD2B"/>
<stop offset="1" stop-color="#FFA325"/>
</linearGradient>
<linearGradient id="paint49_linear_0_96" x1="51.3234" y1="26.827" x2="51.6434" y2="27.1469" gradientUnits="userSpaceOnUse">
<stop stop-color="#FFD945"/>
<stop offset="0.304" stop-color="#FFCD3E"/>
<stop offset="0.856" stop-color="#FFAD2B"/>
<stop offset="1" stop-color="#FFA325"/>
</linearGradient>
<linearGradient id="paint50_linear_0_96" x1="26" y1="131.838" x2="46.3237" y2="131.838" gradientUnits="userSpaceOnUse">
<stop stop-color="#FE7D43"/>
<stop offset="0.165" stop-color="#FE7645"/>
<stop offset="0.408" stop-color="#FE624C"/>
<stop offset="0.649" stop-color="#FD4755"/>
<stop offset="0.823" stop-color="#F23543"/>
<stop offset="1" stop-color="#E41F2D"/>
</linearGradient>
<linearGradient id="paint51_linear_0_96" x1="17.0605" y1="131.838" x2="41.8611" y2="131.838" gradientUnits="userSpaceOnUse">
<stop stop-color="#FE7D43"/>
<stop offset="0.165" stop-color="#FE7645"/>
<stop offset="0.408" stop-color="#FE624C"/>
<stop offset="0.649" stop-color="#FD4755"/>
<stop offset="0.823" stop-color="#F23543"/>
<stop offset="1" stop-color="#E41F2D"/>
</linearGradient>
<linearGradient id="paint52_linear_0_96" x1="28.7438" y1="126.155" x2="32.5022" y2="126.155" gradientUnits="userSpaceOnUse">
<stop stop-color="#F8F6F7"/>
<stop offset="0.179" stop-color="#F8F6F7"/>
<stop offset="1" stop-color="#E7E6F5"/>
</linearGradient>
<linearGradient id="paint53_linear_0_96" x1="28.7438" y1="137.521" x2="32.5022" y2="137.521" gradientUnits="userSpaceOnUse">
<stop stop-color="#F8F6F7"/>
<stop offset="0.179" stop-color="#F8F6F7"/>
<stop offset="1" stop-color="#E7E6F5"/>
</linearGradient>
<linearGradient id="paint54_linear_0_96" x1="40.11" y1="126.155" x2="43.8684" y2="126.155" gradientUnits="userSpaceOnUse">
<stop stop-color="#F8F6F7"/>
<stop offset="0.179" stop-color="#F8F6F7"/>
<stop offset="1" stop-color="#E7E6F5"/>
</linearGradient>
<linearGradient id="paint55_linear_0_96" x1="40.11" y1="137.521" x2="43.8684" y2="137.521" gradientUnits="userSpaceOnUse">
<stop stop-color="#F8F6F7"/>
<stop offset="0.179" stop-color="#F8F6F7"/>
<stop offset="1" stop-color="#E7E6F5"/>
</linearGradient>
<linearGradient id="paint56_linear_0_96" x1="33.6768" y1="124.162" x2="55.7645" y2="124.162" gradientUnits="userSpaceOnUse">
<stop stop-color="#FE7D43"/>
<stop offset="0.165" stop-color="#FE7645"/>
<stop offset="0.408" stop-color="#FE624C"/>
<stop offset="0.649" stop-color="#FD4755"/>
<stop offset="0.823" stop-color="#F23543"/>
<stop offset="1" stop-color="#E41F2D"/>
</linearGradient>
<linearGradient id="paint57_linear_0_96" x1="36.4196" y1="118.479" x2="40.178" y2="118.479" gradientUnits="userSpaceOnUse">
<stop stop-color="#F8F6F7"/>
<stop offset="0.179" stop-color="#F8F6F7"/>
<stop offset="1" stop-color="#E7E6F5"/>
</linearGradient>
<linearGradient id="paint58_linear_0_96" x1="47.7868" y1="129.845" x2="51.5452" y2="129.845" gradientUnits="userSpaceOnUse">
<stop stop-color="#F8F6F7"/>
<stop offset="0.179" stop-color="#F8F6F7"/>
<stop offset="1" stop-color="#E7E6F5"/>
</linearGradient>
<linearGradient id="paint59_linear_0_96" x1="42.1032" y1="124.162" x2="45.8616" y2="124.162" gradientUnits="userSpaceOnUse">
<stop stop-color="#F8F6F7"/>
<stop offset="0.179" stop-color="#F8F6F7"/>
<stop offset="1" stop-color="#E7E6F5"/>
</linearGradient>
<linearGradient id="paint60_linear_0_96" x1="32.798" y1="124.162" x2="46.308" y2="124.162" gradientUnits="userSpaceOnUse">
<stop stop-color="#FE7D43"/>
<stop offset="0.165" stop-color="#FE7645"/>
<stop offset="0.408" stop-color="#FE624C"/>
<stop offset="0.649" stop-color="#FD4755"/>
<stop offset="0.823" stop-color="#F23543"/>
<stop offset="1" stop-color="#E41F2D"/>
</linearGradient>
<linearGradient id="paint61_linear_0_96" x1="38.4078" y1="136.68" x2="43.6071" y2="136.68" gradientUnits="userSpaceOnUse">
<stop stop-color="#F8F6F7"/>
<stop offset="1" stop-color="#D1CEEB"/>
</linearGradient>
<linearGradient id="paint62_linear_0_96" x1="29.2671" y1="126.155" x2="32.512" y2="126.155" gradientUnits="userSpaceOnUse">
<stop stop-color="#F8F6F7"/>
<stop offset="1" stop-color="#D1CEEB"/>
</linearGradient>
<linearGradient id="paint63_linear_0_96" x1="53.9982" y1="216" x2="26.0007" y2="216" gradientUnits="userSpaceOnUse">
<stop stop-color="#E87EA2"/>
<stop offset="1" stop-color="#FCD3A5"/>
</linearGradient>
<linearGradient id="paint64_linear_0_96" x1="51.4196" y1="209.585" x2="28.5772" y2="209.585" gradientUnits="userSpaceOnUse">
<stop stop-color="#C73C5B"/>
<stop offset="1" stop-color="#A32F60"/>
</linearGradient>
<linearGradient id="paint65_linear_0_96" x1="53.9945" y1="216" x2="26.005" y2="216" gradientUnits="userSpaceOnUse">
<stop stop-color="#C73C5B"/>
<stop offset="1" stop-color="#A32F60"/>
</linearGradient>
<linearGradient id="paint66_linear_0_96" x1="51.4282" y1="222.445" x2="28.6203" y2="222.445" gradientUnits="userSpaceOnUse">
<stop stop-color="#C73C5B"/>
<stop offset="1" stop-color="#A32F60"/>
</linearGradient>
<linearGradient id="paint67_linear_0_96" x1="40.6045" y1="215.998" x2="39.7107" y2="215.998" gradientUnits="userSpaceOnUse">
<stop stop-color="#C73C5B"/>
<stop offset="1" stop-color="#A32F60"/>
</linearGradient>
<linearGradient id="paint68_linear_0_96" x1="38.7034" y1="312.92" x2="38.7034" y2="297.905" gradientUnits="userSpaceOnUse">
<stop stop-color="#FFBD9B"/>
<stop offset="1" stop-color="#FFD2BB"/>
</linearGradient>
<linearGradient id="paint69_linear_0_96" x1="31.2844" y1="303.745" x2="31.2844" y2="294.047" gradientUnits="userSpaceOnUse">
<stop stop-color="#3256D5"/>
<stop offset="1" stop-color="#8AA4FF"/>
</linearGradient>
<linearGradient id="paint70_linear_0_96" x1="35.0425" y1="311.041" x2="35.0425" y2="309.248" gradientUnits="userSpaceOnUse">
<stop stop-color="#BB7E62"/>
<stop offset="1" stop-color="#D99C80"/>
</linearGradient>
<linearGradient id="paint71_linear_0_96" x1="33.1737" y1="309.161" x2="33.1737" y2="306.606" gradientUnits="userSpaceOnUse">
<stop stop-color="#BB7E62"/>
<stop offset="1" stop-color="#D99C80"/>
</linearGradient>
<linearGradient id="paint72_linear_0_96" x1="36.9233" y1="312.894" x2="36.9233" y2="310.966" gradientUnits="userSpaceOnUse">
<stop stop-color="#BB7E62"/>
<stop offset="1" stop-color="#D99C80"/>
</linearGradient>
<linearGradient id="paint73_linear_0_96" x1="38.7919" y1="315.224" x2="38.7919" y2="313.118" gradientUnits="userSpaceOnUse">
<stop stop-color="#BB7E62"/>
<stop offset="1" stop-color="#D99C80"/>
</linearGradient>
<linearGradient id="paint74_linear_0_96" x1="43.1672" y1="306.43" x2="43.1672" y2="297.871" gradientUnits="userSpaceOnUse">
<stop stop-color="#BB7E62"/>
<stop offset="1" stop-color="#D99C80"/>
</linearGradient>
<linearGradient id="paint75_linear_0_96" x1="48.7177" y1="304.553" x2="48.7177" y2="292.731" gradientUnits="userSpaceOnUse">
<stop stop-color="#D0DADA"/>
<stop offset="1" stop-color="#F1F1F1"/>
</linearGradient>
<linearGradient id="paint76_linear_0_96" x1="50.6539" y1="301.02" x2="50.6539" y2="298.726" gradientUnits="userSpaceOnUse">
<stop stop-color="#FF7E27"/>
<stop offset="1" stop-color="#FFB05A"/>
</linearGradient>
<linearGradient id="paint77_linear_0_96" x1="29.3462" y1="301.442" x2="29.3462" y2="299.148" gradientUnits="userSpaceOnUse">
<stop stop-color="#FFC100"/>
<stop offset="1" stop-color="#FFE093"/>
</linearGradient>
<linearGradient id="paint78_linear_0_96" x1="32.8803" y1="401.982" x2="50.7563" y2="384.106" gradientUnits="userSpaceOnUse">
<stop stop-color="#FC4422"/>
<stop offset="1" stop-color="#FFBB32"/>
</linearGradient>
<clipPath id="clip0_0_96">
<rect width="28" height="28" fill="white" transform="translate(26 26)"/>
</clipPath>
<clipPath id="clip1_0_96">
<rect width="28" height="28" fill="white" transform="translate(26 114)"/>
</clipPath>
<clipPath id="clip2_0_96">
<rect width="28" height="28" fill="white" transform="translate(54 230) rotate(180)"/>
</clipPath>
</defs>
</svg>
